#!OML:ASF H:\LiuWeirdWalks\Patient Classification 1\Patient 1\Session 1\male.ASF
:FULLY-SPECIFIED
:DEGREES
1226
root 0.547062 18.0716 27.5225 4.13246 1.74615 6.81031
lowerback 16.815 -0.544895 9.46541
upperback 1.79518 1.84455 9.78378
thorax -7.59255 0.767564 4.87886
lowerneck -15.1045 0.558044 8.19325
upperneck 11.7444 2.81913 -25.5863
head 6.67662 -0.256669 -9.78634
rclavicle 1.03368e-014 3.18055e-014
rhumerus -28.2453 -39.9003 -9.77899
rradius 28.1646
rwrist 0.761364
rhand -19.9976 -4.52035
rfingers 7.12502
rthumb 6.34212 -34.4054
lclavicle 1.03368e-014 3.18055e-014
lhumerus -29.0947 28.9057 24.2454
lradius 40.1118
lwrist 15.4483
lhand -23.2961 -10.1764
lfingers 7.12502
lthumb 3.15711 19.7799
rfemur -14.5341 -0.419295 9.96421
rtibia 33.7007
rfoot -15.5513 -18.494
rtoes -2.62389
lfemur -21.7928 2.85826 -19.5761
ltibia 33.8508
lfoot -8.41143 15.9732
ltoes -15.4694
1227
root 0.55091 18.0717 27.5741 4.19057 1.68677 6.73532
lowerback 16.7506 -0.543779 9.27487
upperback 1.85785 1.77992 9.65643
thorax -7.48603 0.742282 4.85298
lowerneck -15.1872 0.624601 8.27908
upperneck 11.6936 2.86198 -25.4448
head 6.68102 -0.224102 -9.74334
rclavicle -4.21423e-014 -3.81667e-014
rhumerus -28.0972 -39.9167 -9.59991
rradius 28.194
rwrist 0.483754
rhand -20.1111 -4.74255
rfingers 7.12502
rthumb 6.23255 -34.6309
lclavicle -4.21423e-014 -3.81667e-014
lhumerus -29.1922 29.0733 24.0493
lradius 40.1123
lwrist 15.4252
lhand -23.3034 -10.09
lfingers 7.12502
lthumb 3.15012 19.8665
rfemur -14.3889 -0.461676 10.0412
rtibia 33.6181
rfoot -15.6172 -18.4458
rtoes -2.76806
lfemur -22.2243 2.95682 -19.5126
ltibia 33.4464
lfoot -8.24931 15.8455
ltoes -15.4809
1228
root 0.555641 18.072 27.6261 4.23074 1.61418 6.58684
lowerback 16.7043 -0.540656 9.16208
upperback 1.91596 1.73684 9.53674
thorax -7.39337 0.724596 4.78815
lowerneck -15.2441 0.678359 8.34328
upperneck 11.6398 2.88718 -25.2767
head 6.67514 -0.197475 -9.68677
rclavicle -1.98785e-014 -6.36111e-014
rhumerus -27.9963 -40.0397 -9.32396
rradius 28.1504
rwrist 0.498308
rhand -20.131 -4.7088
rfingers 7.12502
rthumb 6.21333 -34.5977
lclavicle -1.98785e-014 -6.36111e-014
lhumerus -29.2716 29.2371 23.8608
lradius 40.0643
lwrist 15.3699
lhand -23.2848 -9.95471
lfingers 7.12502
lthumb 3.16803 20.0015
rfemur -14.2144 -0.493776 10.1997
rtibia 33.4987
rfoot -15.6498 -18.3966
rtoes -2.93624
lfemur -22.6365 3.05358 -19.3625
ltibia 33.0274
lfoot -8.08724 15.7303
ltoes -15.5285
1229
root 0.560614 18.0724 27.6788 4.26056 1.53297 6.4066
lowerback 16.6687 -0.530622 9.07806
upperback 1.96644 1.71132 9.41886
thorax -7.31487 0.714148 4.70602
lowerneck -15.2655 0.720756 8.40261
upperneck 11.569 2.89445 -25.107
head 6.65379 -0.176588 -9.62858
rclavicle 0 0
rhumerus -27.9123 -39.9868 -9.05785
rradius 28.1475
rwrist 0.421169
rhand -20.1543 -4.68932
rfingers 7.12502
rthumb 6.19089 -34.5789
lclavicle 0 0
lhumerus -29.3119 29.3794 23.7081
lradius 39.9689
lwrist 15.3916
lhand -23.2908 -9.7795
lfingers 7.12502
lthumb 3.16229 20.1768
rfemur -14.0206 -0.513765 10.3944
rtibia 33.357
rfoot -15.6689 -18.3536
rtoes -3.10526
lfemur -23.03 3.14516 -19.1707
ltibia 32.5814
lfoot -7.93362 15.6236
ltoes -15.57
1230
root 0.566871 18.0726 27.7333 4.2657 1.45657 6.15757
lowerback 16.638 -0.526834 9.05845
upperback 2.01699 1.69184 9.31967
thorax -7.23824 0.705016 4.60782
lowerneck -15.2714 0.751524 8.42623
upperneck 11.5193 2.89472 -24.917
head 6.63377 -0.159523 -9.5574
rclavicle 6.36111e-015 1.17681e-013
rhumerus -27.8119 -40.0932 -8.72571
rradius 28.0752
rwrist 0.524653
rhand -20.1869 -4.68186
rfingers 7.12502
rthumb 6.15936 -34.5723
lclavicle 6.36111e-015 1.17681e-013
lhumerus -29.3488 29.5135 23.5799
lradius 39.8271
lwrist 15.3761
lhand -23.2702 -9.62257
lfingers 7.12502
lthumb 3.18221 20.3334
rfemur -13.787 -0.53978 10.6618
rtibia 33.2035
rfoot -15.6939 -18.3053
rtoes -3.26533
lfemur -23.3789 3.24133 -18.9015
ltibia 32.1039
lfoot -7.79617 15.5125
ltoes -15.657
1231
root 0.573021 18.0724 27.7889 4.28508 1.38623 6.01727
lowerback 16.591 -0.507001 8.9262
upperback 2.05051 1.67078 9.19016
thorax -7.17339 0.69765 4.53952
lowerneck -15.2357 0.769771 8.44991
upperneck 11.4503 2.87525 -24.7317
head 6.59647 -0.148874 -9.48807
rclavicle 1.90833e-014 -2.22639e-014
rhumerus -27.7359 -40.0647 -8.39005
rradius 28.0435
rwrist 0.599866
rhand -20.2001 -4.65647
rfingers 7.12502
rthumb 6.1466 -34.5473
lclavicle 1.90833e-014 -2.22639e-014
lhumerus -29.3659 29.6196 23.4911
lradius 39.6505
lwrist 15.3179
lhand -23.2193 -9.4829
lfingers 7.12502
lthumb 3.23136 20.4724
rfemur -13.5615 -0.586041 10.8032
rtibia 33.0516
rfoot -15.7278 -18.2482
rtoes -3.39902
lfemur -23.7172 3.31255 -18.7505
ltibia 31.5841
lfoot -7.66643 15.4279
ltoes -15.7469
1232
root 0.57952 18.071 27.8449 4.29373 1.32872 5.87342
lowerback 16.5566 -0.486201 8.77835
upperback 2.07661 1.65235 9.06951
thorax -7.12463 0.691824 4.49006
lowerneck -15.2122 0.782965 8.45999
upperneck 11.4205 2.85947 -24.5489
head 6.57425 -0.140006 -9.41946
rclavicle -7.95139e-016 -5.08889e-014
rhumerus -27.6798 -40.0237 -8.01026
rradius 28.0063
rwrist 0.836373
rhand -20.1167 -4.4971
rfingers 7.12502
rthumb 6.2272 -34.3856
lclavicle -7.95139e-016 -5.08889e-014
lhumerus -29.3912 29.6905 23.4567
lradius 39.4881
lwrist 15.3211
lhand -23.201 -9.32975
lfingers 7.12502
lthumb 3.24901 20.6252
rfemur -13.3209 -0.628174 10.9476
rtibia 32.9073
rfoot -15.7818 -18.2062
rtoes -3.48587
lfemur -24.0206 3.3578 -18.5882
ltibia 31.0253
lfoot -7.54357 15.3686
ltoes -15.8277
1233
root 0.586706 18.0691 27.9029 4.29447 1.28587 5.72786
lowerback 16.5087 -0.465717 8.62557
upperback 2.10106 1.63152 8.95274
thorax -7.07057 0.685147 4.44828
lowerneck -15.1853 0.791768 8.4684
upperneck 11.3979 2.84008 -24.371
head 6.55313 -0.133471 -9.35327
rclavicle 3.33958e-014 9.54166e-015
rhumerus -27.6605 -39.7543 -7.66027
rradius 28.073
rwrist 0.999455
rhand -19.9463 -4.25032
rfingers 7.12502
rthumb 6.39169 -34.1339
lclavicle 3.33958e-014 9.54166e-015
lhumerus -29.4352 29.7454 23.4566
lradius 39.3385
lwrist 15.232
lhand -23.1306 -9.23133
lfingers 7.12502
lthumb 3.31702 20.7226
rfemur -13.0651 -0.68855 11.0907
rtibia 32.7768
rfoot -15.858 -18.1691
rtoes -3.54658
lfemur -24.2874 3.38144 -18.4203
ltibia 30.4261
lfoot -7.41101 15.3319
ltoes -15.8601
1234
root 0.593963 18.0659 27.9606 4.29416 1.2472 5.60053
lowerback 16.4679 -0.450662 8.40769
upperback 2.12866 1.5937 8.84397
thorax -7.01873 0.672213 4.45598
lowerneck -15.1728 0.82298 8.5118
upperneck 11.3646 2.84643 -24.2199
head 6.53738 -0.11513 -9.3015
rclavicle -1.27222e-014 -3.18055e-014
rhumerus -27.6056 -39.724 -7.27484
rradius 28.0709
rwrist 1.47245
rhand -19.6917 -3.77238
rfingers 7.12502
rthumb 6.63743 -33.6484
lclavicle -1.27222e-014 -3.18055e-014
lhumerus -29.5517 29.7778 23.4682
lradius 39.2609
lwrist 15.2103
lhand -23.0849 -9.10609
lfingers 7.12502
lthumb 3.3611 20.8472
rfemur -12.8128 -0.735798 11.2162
rtibia 32.6555
rfoot -15.924 -18.1662
rtoes -3.61314
lfemur -24.5364 3.36914 -18.2619
ltibia 29.7998
lfoot -7.25294 15.3363
ltoes -15.8707
1235
root 0.601536 18.0618 28.02 4.29084 1.22095 5.46611
lowerback 16.4089 -0.44494 8.16789
upperback 2.1679 1.53687 8.74493
thorax -6.94462 0.651246 4.49057
lowerneck -15.2042 0.872527 8.57378
upperneck 11.3383 2.87676 -24.082
head 6.53701 -0.0882599 -9.25758
rclavicle -7.15625e-015 -2.8625e-014
rhumerus -27.5201 -39.7712 -6.90979
rradius 28.0701
rwrist 2.02004
rhand -19.4112 -3.20281
rfingers 7.12502
rthumb 6.90825 -33.0701
lclavicle -7.15625e-015 -2.8625e-014
lhumerus -29.7087 29.8118 23.4867
lradius 39.2328
lwrist 15.1898
lhand -23.0231 -8.96311
lfingers 7.12502
lthumb 3.42075 20.9892
rfemur -12.5513 -0.790376 11.3507
rtibia 32.5409
rfoot -15.9866 -18.1893
rtoes -3.70281
lfemur -24.7579 3.30796 -18.0843
ltibia 29.1473
lfoot -7.07298 15.3869
ltoes -15.8758
1236
root 0.609443 18.0571 28.08 4.28174 1.19386 5.34943
lowerback 16.3499 -0.439947 7.8816
upperback 2.21158 1.471 8.64642
thorax -6.86645 0.627072 4.55397
lowerneck -15.266 0.928447 8.62281
upperneck 11.3373 2.92011 -23.9263
head 6.55185 -0.0574469 -9.20536
rclavicle -3.73715e-014 -8.5875e-014
rhumerus -27.357 -39.906 -6.61275
rradius 28.077
rwrist 2.33891
rhand -19.3128 -2.87713
rfingers 7.12502
rthumb 7.00319 -32.7413
lclavicle -3.73715e-014 -8.5875e-014
lhumerus -29.9085 29.8435 23.5072
lradius 39.2454
lwrist 15.1143
lhand -22.9272 -8.8366
lfingers 7.12502
lthumb 3.51338 21.1142
rfemur -12.2874 -0.83498 11.4657
rtibia 32.4358
rfoot -16.0341 -18.2374
rtoes -3.83467
lfemur -24.9543 3.21809 -17.9174
ltibia 28.4699
lfoot -6.84113 15.4771
ltoes -15.8735
1237
root 0.617303 18.0521 28.1408 4.27575 1.17042 5.26103
lowerback 16.2842 -0.431792 7.55052
upperback 2.25298 1.40093 8.53994
thorax -6.78756 0.601667 4.63489
lowerneck -15.3379 0.988119 8.68156
upperneck 11.3377 2.96641 -23.7716
head 6.56954 -0.0254247 -9.15542
rclavicle 2.3059e-014 -9.22361e-014
rhumerus -27.1845 -40.1384 -6.31857
rradius 28.0632
rwrist 2.67819
rhand -19.2522 -2.57152
rfingers 7.12502
rthumb 7.06175 -32.4337
lclavicle 2.3059e-014 -9.22361e-014
lhumerus -30.1286 29.8806 23.5314
lradius 39.2915
lwrist 14.9664
lhand -22.7997 -8.73598
lfingers 7.12502
lthumb 3.63657 21.2127
rfemur -12.0273 -0.865592 11.5505
rtibia 32.3357
rfoot -16.0721 -18.31
rtoes -3.99587
lfemur -25.1373 3.09104 -17.7704
ltibia 27.7653
lfoot -6.55882 15.6111
ltoes -15.8735
1238
root 0.62603 18.0465 28.2027 4.26477 1.15632 5.17513
lowerback 16.2089 -0.427473 7.21426
upperback 2.29686 1.32377 8.42764
thorax -6.70003 0.572686 4.71394
lowerneck -15.4374 1.0479 8.73697
upperneck 11.3765 3.01746 -23.6039
head 6.60452 0.0063791 -9.1021
rclavicle -2.14687e-014 -7.63333e-014
rhumerus -26.9509 -40.152 -6.18107
rradius 28.1677
rwrist 2.46864
rhand -19.4182 -2.71735
rfingers 7.12502
rthumb 6.90143 -32.5849
lclavicle -2.14687e-014 -7.63333e-014
lhumerus -30.3516 29.913 23.567
lradius 39.3714
lwrist 14.8514
lhand -22.6948 -8.65352
lfingers 7.12502
lthumb 3.73783 21.2934
rfemur -11.7562 -0.892226 11.6285
rtibia 32.2433
rfoot -16.1094 -18.387
rtoes -4.16994
lfemur -25.294 2.93564 -17.6191
ltibia 27.0319
lfoot -6.22068 15.7704
ltoes -15.8848
1239
root 0.635053 18.0408 28.2657 4.25792 1.14752 5.11823
lowerback 16.1142 -0.422144 6.84127
upperback 2.34217 1.23888 8.30163
thorax -6.5999 0.540481 4.80013
lowerneck -15.5271 1.11079 8.80621
upperneck 11.3987 3.06623 -23.4335
head 6.63214 0.0393891 -9.04951
rclavicle 2.14687e-014 1.145e-013
rhumerus -26.6784 -39.8753 -6.19502
rradius 28.3947
rwrist 1.76295
rhand -19.738 -3.17762
rfingers 7.12502
rthumb 6.59273 -33.055
lclavicle 2.14687e-014 1.145e-013
lhumerus -30.5695 29.9609 23.6002
lradius 39.4678
lwrist 14.7063
lhand -22.5746 -8.60413
lfingers 7.12502
lthumb 3.85389 21.3408
rfemur -11.4879 -0.909785 11.671
rtibia 32.1604
rfoot -16.1582 -18.4637
rtoes -4.32194
lfemur -25.4365 2.73986 -17.4888
ltibia 26.268
lfoot -5.83911 15.979
ltoes -15.8847
